<?xml version="1.0" encoding="UTF-8"?>
<svg version="1.1" xmlns="http://www.w3.org/2000/svg" width="32" height="32">
<path d="M0 0 C10.56 0 21.12 0 32 0 C32 10.56 32 21.12 32 32 C21.44 32 10.88 32 0 32 C0 21.44 0 10.88 0 0 Z " fill="#F9F9F9" transform="translate(0,0)"/>
<path d="M0 0 C2.60444348 -0.05394705 5.20776998 -0.09364469 7.8125 -0.125 C8.55048828 -0.14175781 9.28847656 -0.15851562 10.04882812 -0.17578125 C13.91246426 -0.21074628 15.70903668 -0.19397555 19 2 C19.3125 4.5 19.3125 4.5 19 7 C18.34 7.66 17.68 8.32 17 9 C17.66 9.66 18.32 10.32 19 11 C19.0625 13.9375 19.0625 13.9375 18 17 C12.43717083 20.507001 6.45207409 20.6616453 0 21 C0.33 20.01 0.66 19.02 1 18 C3.72265625 17.05078125 3.72265625 17.05078125 7.0625 16.3125 C8.16722656 16.06113281 9.27195312 15.80976563 10.41015625 15.55078125 C11.26480469 15.36902344 12.11945312 15.18726563 13 15 C13 14.01 13 13.02 13 12 C9.7 12 6.4 12 3 12 C3 10.68 3 9.36 3 8 C1.68 7.67 0.36 7.34 -1 7 C2.3 6.67 5.6 6.34 9 6 C9 6.66 9 7.32 9 8 C10.65 7.67 12.3 7.34 14 7 C14.33 6.01 14.66 5.02 15 4 C8.565 4.495 8.565 4.495 2 5 C2 4.01 2 3.02 2 2 C1.34 1.34 0.68 0.68 0 0 Z " fill="#4D43F3" transform="translate(8,5)"/>
<path d="M0 0 C-0.33 1.32 -0.66 2.64 -1 4 C-3.64 4.33 -6.28 4.66 -9 5 C-8.34 4.67 -7.68 4.34 -7 4 C-7 2.68 -7 1.36 -7 0 C-4.3333581 -1.33332095 -2.83319697 -0.67102033 0 0 Z " fill="#FAFAFD" transform="translate(22,17)"/>
<path d="M0 0 C3.3 0 6.6 0 10 0 C9.67 1.32 9.34 2.64 9 4 C7.02 4.33 5.04 4.66 3 5 C3.33 4.01 3.66 3.02 4 2 C2.68 2 1.36 2 0 2 C0 1.34 0 0.68 0 0 Z " fill="#FAF9FE" transform="translate(13,9)"/>
<path d="M0 0 C0 0.99 0 1.98 0 3 C-1.98 3.33 -3.96 3.66 -6 4 C-6 3.34 -6 2.68 -6 2 C-6.99 1.67 -7.98 1.34 -9 1 C-6.04335481 -0.4783226 -3.25770263 -0.06032783 0 0 Z " fill="#4C43E7" transform="translate(15,18)"/>
<path d="M0 0 C-0.99 1.485 -0.99 1.485 -2 3 C-4.625 3.1875 -4.625 3.1875 -7 3 C-6.67 2.01 -6.34 1.02 -6 0 C-3.42525708 -0.99667468 -2.51072708 -1.25536354 0 0 Z " fill="#4239E1" transform="translate(15,23)"/>
</svg>
